PathFileType	4	(X/Y/Z)	Kaydara	
DataRate	CameraRate	NumFrames	NumMarkers	Units	OrigDataRate	OrigDataStartFrame	OrigNumFrames	
60.00	60.00	4	74	mm	60.00	714	134	
Frame#	Time	Z_lasi			Z_rasi			Z_rpsi			Z_lpsi			Z_fneck			Z_bneck			Z_fhead			Z_lhead			Z_rshld			Z_relbtop			Z_relbext			Z_relblow			Z_rwrext			Z_rwrtop			Z_rwrlow			Z_lshld			Z_lelbext			Z_lelblow			Z_lelbtop			Z_lwrext			Z_lwrtop			Z_lwrlow			Z_rtopleg			Z_rkneefr			Z_rkneebk			Z_rkneeis			Z_lkneefr			Z_lknssbk			Z_lkneeis			Z_rankfr			Z_rankis			Z_rankbk			Z_lankfr			Z_lankbk			Z_lankis			Z_rhead			Z_ltopleg			N_rpsi			N_lpsi			N_fneck			N_bneck			N_fhead			N_rhead			N_lhead			N_rshld			N_relbtop			N_relbext			N_relblow			N_rwrext			N_rwrtop			N_rwrlow			N_lshld			N_lelbext			N_lelblow			N_lelbtop			N_lwrext			N_lwrtop			N_lwrlow			N_rtopleg			N_ltopleg			N_rkneefr			N_rkneebk			N_rkneeis			N_lkneefr			N_lknssbk			N_lkneeis			N_rankfr			N_rankis			N_rankbk			N_lankfr			N_lankbk			N_lankis			N_lasi			N_rasi			
		X1	Y1	Z1	X2	Y2	Z2	X3	Y3	Z3	X4	Y4	Z4	X5	Y5	Z5	X6	Y6	Z6	X7	Y7	Z7	X8	Y8	Z8	X9	Y9	Z9	X10	Y10	Z10	X11	Y11	Z11	X12	Y12	Z12	X13	Y13	Z13	X14	Y14	Z14	X15	Y15	Z15	X16	Y16	Z16	X17	Y17	Z17	X18	Y18	Z18	X19	Y19	Z19	X20	Y20	Z20	X21	Y21	Z21	X22	Y22	Z22	X23	Y23	Z23	X24	Y24	Z24	X25	Y25	Z25	X26	Y26	Z26	X27	Y27	Z27	X28	Y28	Z28	X29	Y29	Z29	X30	Y30	Z30	X31	Y31	Z31	X32	Y32	Z32	X33	Y33	Z33	X34	Y34	Z34	X35	Y35	Z35	X36	Y36	Z36	X37	Y37	Z37	X38	Y38	Z38	X39	Y39	Z39	X40	Y40	Z40	X41	Y41	Z41	X42	Y42	Z42	X43	Y43	Z43	X44	Y44	Z44	X45	Y45	Z45	X46	Y46	Z46	X47	Y47	Z47	X48	Y48	Z48	X49	Y49	Z49	X50	Y50	Z50	X51	Y51	Z51	X52	Y52	Z52	X53	Y53	Z53	X54	Y54	Z54	X55	Y55	Z55	X56	Y56	Z56	X57	Y57	Z57	X58	Y58	Z58	X59	Y59	Z59	X60	Y60	Z60	X61	Y61	Z61	X62	Y62	Z62	X63	Y63	Z63	X64	Y64	Z64	X65	Y65	Z65	X66	Y66	Z66	X67	Y67	Z67	X68	Y68	Z68	X69	Y69	Z69	X70	Y70	Z70	X71	Y71	Z71	X72	Y72	Z72	X73	Y73	Z73	X74	Y74	Z74	

84	11.883	-1009.19037	963.79364	629.58569	-871.50101	984.96384	822.85019	-1046.71532	1042.29225	907.71469	-1158.80882	1029.45160	747.49985	-935.46661	1437.77237	645.84747	-1015.22827	1501.76819	719.80385	-842.16545	1607.96509	603.65448	-961.08856	1617.75009	753.33412	-815.12932	1395.52902	834.72549	-702.41348	1154.77356	797.75391	-745.27306	1095.34584	811.42776	-741.59561	1142.73216	734.19014	-594.48639	1021.43494	590.48130	-562.57977	1052.80983	594.91676	-582.44789	1085.56839	570.43327	-1133.73108	1385.51666	570.35316	-1133.12508	1068.71445	590.98179	-1153.03741	1104.33853	506.43204	-1201.95892	1070.00900	563.32729	-1135.80917	879.32098	452.82024	-1109.58405	900.91354	427.44976	-1072.96654	896.89552	454.13700	-900.20203	881.83968	925.79956	-869.15367	405.01453	866.90079	-891.53549	452.27390	943.07037	-965.66818	429.93145	854.20494	-969.65233	413.66966	573.55701	-1052.18513	433.91510	574.18858	-990.50507	428.71773	678.50357	-950.94498	165.18032	958.64876	-1031.10435	176.15089	952.54585	-998.88283	180.72765	1017.00195	-1040.85205	158.05264	581.81179	-1032.96539	152.12702	647.26883	-968.16368	164.48591	614.85439	-1026.39702	1608.46359	640.33768	-1142.21634	889.54628	557.97466	-100.16660	1062.84607	145.45691	47.84531	1097.90794	334.87419	-321.96888	1452.51999	320.89790	-247.02730	1540.66315	236.44850	-473.56773	1659.13391	278.83226	-332.79816	1630.65201	179.69025	-317.18527	1672.44843	331.59557	-372.20097	1375.86365	122.21011	-394.94999	1071.05766	174.21432	-328.63506	1078.42102	226.71473	-417.89497	1119.32259	232.50597	-495.05287	1011.15845	418.67352	-528.93841	1049.22752	411.36494	-508.36720	1087.24373	426.98414	-112.80463	1522.23816	450.62771	74.59510	1240.90141	465.03670	7.53802	1298.53424	425.74829	23.04110	1279.33952	536.48224	-189.28873	1194.01917	499.09817	-201.03838	1243.42728	514.69669	-196.37815	1261.64215	470.58384	-223.90055	886.43944	152.60230	14.73604	919.86992	487.16732	-260.97843	457.88101	260.52313	-168.35718	485.85964	188.98727	-151.52198	461.21853	301.64074	-87.52339	450.61314	493.02677	-40.78983	467.22775	395.69138	12.00926	492.59975	501.41449	-230.31483	155.97395	247.17903	-165.43865	155.68995	277.20484	-183.17024	148.73535	202.59735	18.99176	146.19386	505.05669	56.76600	152.00309	418.24619	-13.50394	145.46102	441.39442	-106.35208	1022.90031	473.40511	-267.77590	984.60892	317.39458 
85	11.900	-1008.51143	963.59489	637.29427	-870.44792	983.37433	830.62210	-1045.22263	1040.51933	916.50154	-1158.11874	1028.38013	756.79489	-935.70755	1437.55325	656.90659	-1015.20142	1500.84198	731.54282	-842.85385	1607.93228	614.92832	-960.35728	1617.15454	765.20653	-813.35579	1395.81909	842.79404	-697.20932	1157.29950	800.88150	-739.44878	1097.37511	814.68864	-737.31186	1145.18272	737.52388	-590.94688	1023.63327	592.47746	-558.57487	1055.31837	596.82327	-579.18621	1087.71049	571.89697	-1134.64615	1385.34515	582.14985	-1133.99155	1068.34946	600.63557	-1154.16847	1104.63974	516.20552	-1202.80769	1070.14099	573.17142	-1138.29933	879.88220	461.01189	-1112.15538	901.68205	435.71918	-1075.43533	897.10091	462.23503	-899.18953	880.19272	933.85925	-873.07747	403.16910	874.34738	-893.84674	450.01129	951.56097	-969.61113	428.84903	862.93564	-969.99123	413.71872	577.41203	-1052.49146	433.92742	578.07018	-990.78018	427.82726	682.73247	-954.18732	163.00499	965.33669	-1034.09866	174.02769	960.51056	-1000.81734	177.97268	1024.80576	-1041.16051	158.13305	582.85095	-1032.95494	151.59250	648.29681	-968.31993	164.23904	615.86792	-1026.54419	1608.42651	653.26904	-1142.21634	889.54628	557.97466	-101.59282	1062.89009	144.53265	47.50628	1097.55913	333.13965	-322.00302	1454.36111	321.65375	-245.32312	1542.35626	240.22722	-468.40782	1665.21576	279.48395	-330.94410	1630.06973	178.04218	-310.62029	1674.32007	328.72524	-372.91401	1376.54770	122.08065	-395.47947	1072.17979	174.14249	-327.99389	1078.71231	227.18733	-416.60122	1119.20174	233.29847	-493.34179	1011.98021	418.83377	-526.91357	1050.19218	412.21302	-506.19278	1087.93106	427.47623	-112.33896	1521.52405	449.59538	74.98194	1240.41885	463.49796	7.86749	1297.99728	424.55616	23.31321	1278.74809	535.63679	-189.18976	1193.41682	497.92858	-200.81034	1242.77596	513.67809	-196.33905	1261.12366	469.68552	-225.48410	886.54999	152.38255	14.70875	919.46686	485.76374	-261.51129	457.93674	259.92245	-168.93961	486.05244	188.12504	-151.57950	461.45912	300.52166	-88.70957	450.60127	493.62255	-42.11164	467.50854	396.46114	10.34663	492.92263	502.46670	-230.42200	155.99958	246.61009	-165.55855	155.58025	276.79905	-183.28335	148.80232	201.78406	19.46122	146.76293	505.25269	57.28090	152.93653	418.69019	-12.78064	146.03539	441.71757	-105.70202	1022.83798	472.78011	-268.14087	984.66721	317.68164 
86	11.917	-1008.19870	962.98248	645.99510	-869.34052	981.81999	839.07387	-1043.98193	1038.86147	925.57533	-1157.46994	1027.25769	766.31508	-936.05911	1437.48672	667.72400	-1015.04066	1499.90509	743.59444	-843.81027	1608.13858	626.46015	-960.69778	1616.19659	778.02963	-811.84883	1395.46371	850.72586	-692.84660	1158.95180	804.76768	-734.42787	1098.86108	819.09500	-733.96126	1146.56166	741.30707	-588.59505	1023.31619	595.97595	-556.47625	1055.06287	599.62776	-577.43988	1087.17545	574.46861	-1135.58693	1385.14999	594.64119	-1134.79454	1068.09982	610.99285	-1155.21194	1104.99779	526.77208	-1203.51028	1070.24368	583.79322	-1140.88120	880.63477	469.78325	-1114.54857	902.36229	444.55513	-1077.77298	897.35764	470.92663	-898.67424	878.61626	942.01134	-876.92635	401.85860	883.04749	-897.93808	447.78316	960.65140	-973.27599	427.50423	871.02371	-970.41893	413.71433	582.16022	-1052.98241	433.92464	583.00549	-990.87532	426.49372	687.24518	-956.13487	160.06815	970.23064	-1036.05751	170.31776	965.14938	-1002.80334	174.08566	1030.78125	-1041.30859	158.26889	584.30634	-1033.04359	150.77036	649.49760	-968.55072	163.99458	617.01580	-1027.44827	1608.50250	666.32652	-1142.21634	889.54628	557.97466	-102.84953	1062.79480	143.93219	47.18148	1096.98341	331.70799	-321.10046	1456.98578	322.36652	-242.70809	1544.81308	243.84909	-462.51789	1671.22131	278.57615	-327.45480	1630.03082	176.36662	-304.05277	1676.23077	326.17096	-373.02307	1377.32513	122.11452	-396.60328	1073.36227	175.62119	-328.58055	1079.53148	228.81550	-417.16873	1120.07652	234.85159	-492.41432	1011.19743	421.14124	-526.09901	1049.37096	414.47369	-505.52628	1086.91139	429.97173	-111.75245	1521.03683	449.12422	75.41757	1239.84825	462.53361	8.36839	1297.30621	423.67718	23.87937	1277.93640	534.84322	-188.44690	1192.29904	497.01637	-200.21694	1241.62392	513.13896	-195.97864	1260.29099	469.21200	-227.02404	886.64078	152.20324	14.77954	919.27505	484.94862	-262.00901	458.06793	259.44614	-169.61145	486.12495	187.51152	-151.90733	461.46355	299.83469	-90.06464	450.54462	494.98730	-43.37897	467.80346	397.54856	8.94784	493.37959	503.48560	-230.52309	156.06829	245.85033	-165.49946	155.41166	276.62930	-183.45957	148.91536	200.94292	20.54972	147.56473	505.24742	58.66660	154.15627	418.87699	-11.56584	146.80913	441.81984	-105.54002	1022.90398	472.17247	-268.68643	984.77310	316.87876 
87	11.933	-1007.88422	962.27554	654.99229	-868.13545	980.49347	847.90474	-1042.89650	1037.30202	935.10445	-1156.76476	1026.13228	775.99831	-936.33873	1437.25830	679.04587	-1014.48807	1498.93906	755.96596	-844.84428	1608.50464	638.04535	-960.82214	1615.32227	791.05774	-809.88647	1394.88068	859.59450	-689.34937	1159.49593	809.98314	-730.85487	1099.28436	824.82971	-731.15044	1146.37871	747.81334	-588.25191	1020.89638	600.40466	-555.83771	1052.55295	603.67897	-576.98246	1084.66309	578.36857	-1136.76666	1385.12161	607.58076	-1134.66988	1067.91557	621.55529	-1156.22658	1105.43579	537.64256	-1204.13338	1070.44395	595.18589	-1143.45184	881.35841	479.43233	-1117.08809	903.07648	454.21185	-1080.31197	897.60773	480.46238	-898.31047	877.52029	950.96649	-880.00168	400.30876	891.09314	-901.79291	445.06546	969.04274	-976.13579	426.03893	878.30322	-971.12091	413.61694	587.56546	-1053.65219	433.89904	588.58757	-991.10748	425.03506	692.42035	-958.38829	156.83494	972.54242	-1038.37585	166.54730	967.59666	-1004.77478	168.96334	1033.11584	-1041.65047	158.28667	585.92392	-1033.45589	150.08536	651.12556	-968.96736	163.63842	618.85902	-1027.92892	1607.98706	679.56978	-1142.21634	889.54628	557.97466	-103.83059	1062.70416	143.41886	47.01441	1096.23444	330.62977	-319.55353	1459.73740	323.24780	-239.44864	1547.39639	247.63947	-456.31386	1676.88080	276.73050	-322.48104	1630.70786	174.98220	-297.37532	1678.40958	324.10252	-372.65850	1378.32977	122.38069	-398.33557	1074.97093	178.95529	-329.62437	1080.72975	232.24945	-418.04222	1121.28326	238.16088	-492.68608	1009.28337	424.48021	-526.74324	1047.74185	418.43216	-506.01131	1084.89487	434.24831	-110.62370	1520.92209	448.95100	75.84876	1238.88931	462.11494	8.70545	1296.19507	422.91195	24.12230	1276.67320	533.73142	-187.93407	1191.05377	496.26453	-199.85415	1240.05074	512.54997	-195.52881	1259.12086	468.80138	-228.38821	886.85951	152.18203	14.84418	919.10362	484.41502	-261.88660	458.08617	259.14394	-169.95731	486.27609	186.86037	-151.77863	461.60179	299.09262	-91.12771	450.53013	495.71529	-44.33931	468.12321	398.56350	7.68914	493.81264	504.65534	-230.64631	156.18255	245.05671	-165.73935	155.21753	274.75945	-183.63340	149.00249	200.22261	21.74401	148.09516	505.20390	60.34687	155.36205	419.29768	-9.94118	147.60244	441.77799	-105.32694	1022.98248	471.76071	-268.95794	984.98291	318.19670 
